# This file uses meters as units for non-parametric coordinates.

mtllib temple.mtl
g default
v -13.390273 21.227521 8.735954
v -13.390269 21.227521 -8.735962
v 1.740850 21.227521 17.471912
v 16.871974 21.227521 8.735958
v 16.871974 21.227521 -8.735954
v 1.740853 21.227521 -17.471912
v -13.390269 -21.948403 -8.735962
v -13.390273 -21.948403 8.735954
v 1.740850 -21.948403 17.471912
v 16.871974 -21.948403 8.735958
v 16.871974 -21.948403 -8.735954
v 1.740853 -21.948403 -17.471912
v -13.390270 21.227521 -1.083897
v -13.390270 -21.948403 -1.083897
v -13.390272 21.227521 0.998508
v -13.390272 -21.948403 0.998508
v -13.390270 -0.077174 -1.083897
v -13.390270 -0.077174 0.998508
v -13.390273 -0.077174 8.735954
v 1.740850 -0.077174 17.471912
v 16.871974 -0.077174 8.735958
v 16.871974 -0.077174 -8.735954
v 1.740853 -0.077174 -17.471912
v -13.390269 -0.077174 -8.735962
v -13.166002 -0.077174 0.998508
v -13.196053 -0.077174 8.623821
v -13.222073 21.227521 8.638844
v -13.166005 21.227521 0.998508
v 1.740850 -0.077174 17.247646
v 1.740850 21.227521 17.277691
v 16.677752 -0.077174 8.623825
v 16.703776 21.227521 8.638847
v 16.677752 -0.077174 -8.623817
v 16.703776 21.227521 -8.638844
v 1.740853 -0.077174 -17.247650
v 1.740853 21.227521 -17.277687
v -13.196048 -0.077174 -8.623829
v -13.222068 21.227521 -8.638851
v -13.166002 -0.077174 -1.083897
v -13.166002 21.227521 -1.083897
v -13.166002 -21.948403 -1.083897
v -13.166005 -21.948403 0.998508
v -13.222073 -21.948403 8.638844
v 1.740850 -21.948403 17.277691
v 16.703776 -21.948403 8.638847
v 16.703776 -21.948403 -8.638844
v 1.740853 -21.948403 -17.277687
v -13.222068 -21.948403 -8.638851
v -13.390269 -21.948401 -8.735962
v -13.390273 -21.948401 8.735954
v 1.740849 -21.948401 17.471912
v 16.871974 -21.948401 8.735958
v 16.871974 -21.948401 -8.735954
v 1.740852 -21.948401 -17.471912
v 1.740852 -137.876979 0.000000
v -13.390269 53.226629 -8.735962
v -13.390273 53.226629 8.735954
v 1.740849 53.226629 17.471912
v 16.871974 53.226629 8.735958
v 16.871974 53.226629 -8.735954
v 1.740852 53.226629 -17.471912
v 1.740852 69.755941 -0.323433
v -13.390269 21.706556 -8.735962
v 1.740852 21.706556 -17.471912
v 16.871974 21.706556 -8.735954
v 16.871974 21.706556 8.735958
v 1.740849 21.706556 17.471912
v -13.390273 21.706556 8.735954
v -13.029566 53.052968 -8.527710
v -13.029570 53.052968 8.527702
v 1.740852 69.304693 -0.323433
v 1.740849 53.052968 17.055408
v 16.511271 53.052968 8.527706
v 16.511271 53.052968 -8.527702
v 1.740852 53.052968 -17.055408
v -13.051824 21.706556 -8.540558
v 1.740852 21.706556 -17.081116
v 16.533530 21.706556 -8.540554
v 16.533530 21.706556 8.540558
v 1.740849 21.706556 17.081114
v -13.051828 21.706556 8.540554
v -13.361404 -1.315799 -8.719296
v -13.361409 -1.315799 8.719288
v 1.740850 -1.315799 17.438583
v 16.843110 -1.315799 8.719296
v 16.843110 -1.315799 -8.719292
v 1.740853 -1.315799 -17.438583
v -13.361404 -0.042319 -8.719296
v -13.361409 -0.042319 8.719288
v 1.740850 -0.042319 17.438583
v 16.843110 -0.042319 8.719296
v 16.843110 -0.042319 -8.719292
v 1.740853 -0.042319 -17.438583
v 1.740853 -9.362702 0.000000
v 1.740175 -0.040980 16.990765
v -12.974193 -0.040980 8.495422
v -12.974190 -0.040980 -8.495270
v 1.740179 -0.040980 -16.990608
v 16.454545 -0.040980 -8.495262
v 16.454545 -0.040980 8.495426
v -0.180265 -0.070121 -1.093193
v -0.180266 -0.070121 1.098526
v 1.717825 -0.070121 2.194389
v 3.615912 -0.070121 1.098526
v 3.615914 -0.070121 -1.093193
v 1.717825 -0.070121 -2.189060
v -16.871970 -0.070128 -1.093201
v -16.871974 -0.070128 1.098522
v 1.717825 0.027719 -2.189060
v -0.180265 0.027719 -1.093193
v -0.180266 0.027719 1.098526
v 1.717825 0.027719 2.194389
v 3.615912 0.027719 1.098526
v 3.615914 0.027719 -1.093193
v -16.871970 0.027711 -1.093201
v -16.871974 0.027711 1.098522
vt -3.346476 3.728558
vt -3.346476 2.411949
vt -1.468580 2.411950
vt -1.468580 3.730854
vt -5.274309 3.730855
vt -5.274310 2.411949
vt -3.346477 1.095340
vt -1.468579 1.093047
vt -5.274310 1.093047
vt -3.346476 -0.573938
vt -3.346476 -1.890547
vt -1.468579 -1.890547
vt -1.468580 -0.571644
vt -5.274307 -0.571644
vt -5.274308 -1.890546
vt -3.346475 -3.207156
vt -1.468579 -3.209449
vt -5.274309 -3.209450
vt 0.498591 -2.888546
vt 2.376488 -2.888544
vt 2.376487 -1.554817
vt 0.498591 -1.554817
vt 2.376488 -0.221088
vt 0.498591 -0.221087
vt -1.429242 -2.888545
vt -1.429242 -1.554818
vt -1.429242 -0.221087
vt 0.498591 1.439900
vt 2.376488 1.439899
vt 2.376487 2.773628
vt 0.498591 2.773629
vt 2.376488 4.107356
vt 0.498592 4.107357
vt -1.429242 1.439900
vt -1.429242 2.773627
vt -1.429241 4.107358
vt 4.293723 -0.149078
vt 2.415825 -0.149077
vt 2.415824 -0.168846
vt 4.293723 -0.168846
vt 2.415825 -0.264883
vt 4.293723 -0.264883
vt 4.293723 -0.245115
vt 2.415826 -0.245116
vt 4.725911 5.327003
vt 4.043895 5.327003
vt 4.043898 5.307236
vt 4.717351 5.312175
vt 5.495941 3.993273
vt 5.478822 3.993274
vt 4.725912 2.659544
vt 4.717351 2.674372
vt 3.185853 2.659545
vt 3.194412 2.674370
vt 2.415826 3.993273
vt 2.432944 3.993273
vt 3.185855 5.327003
vt 3.194412 5.312173
vt 3.860344 5.327004
vt 3.860344 5.307233
vt 3.860343 -0.069853
vt 4.043895 -0.069852
vt 4.043896 -0.050084
vt 3.860344 -0.050083
vt 4.725909 -0.069850
vt 4.717351 -0.055026
vt 3.185855 -0.069851
vt 3.194413 -0.055026
vt 5.495940 1.263877
vt 5.478823 1.263876
vt 2.415826 1.263877
vt 2.432945 1.263877
vt 4.725911 2.597607
vt 4.717352 2.582780
vt 3.185854 2.597605
vt 3.194414 2.582780
vt 2.599378 -0.341153
vt 2.415825 -0.341153
vt 2.415825 -0.360922
vt 2.599378 -0.360922
vt -3.396413 4.653548
vt -3.396411 5.325677
vt -5.274311 5.326999
vt -5.274307 4.653546
vt -1.468580 4.653546
vt -1.468578 5.327004
vt -1.468579 4.469995
vt -3.396411 4.469995
vt -1.468579 3.804066
vt -3.396411 3.805389
vt -5.274310 4.469995
vt -5.274308 3.804064
vt -3.346475 1.021260
vt -3.346475 -0.499028
vt -1.468579 -0.500352
vt -1.468580 1.022584
vt -5.274311 1.022585
vt -5.274312 -0.500353
vt 0.498592 -3.631025
vt 2.376489 -3.631027
vt 2.376487 -2.949008
vt 0.498592 -2.949011
vt -1.429240 -3.631026
vt -1.429240 -2.949009
vt -1.429241 -3.814578
vt 0.498592 -3.814579
vt -1.429240 -4.489069
vt 0.498591 -4.489070
vt 2.376486 -4.489070
vt 2.376489 -3.814578
vt 0.448655 1.379435
vt -1.429242 1.379435
vt -1.429242 -0.160622
vt 0.448655 -0.160622
vt 2.376488 1.379435
vt 2.376489 -0.160623
vt 0.421875 0.020934
vt 0.578125 0.020934
vt 0.500000 0.150000
vt 0.343750 0.156250
vt 0.421875 0.291566
vt 0.578125 0.291566
vt 0.656250 0.156250
vt 4.602445 19.990425
vt 1.423994 14.230909
vt -1.236124 19.242315
vt -3.627294 14.387168
vt -0.909422 10.002639
vt 4.249017 10.040544
vt 7.082016 14.651861
vt 4.814341 1.656115
vt 4.814341 8.166520
vt 8.423127 8.166521
vt 8.423127 1.656116
vt 1.205547 1.656129
vt 1.205552 8.166502
vt -2.403250 1.656096
vt -2.403254 8.166539
vt -6.012018 1.656119
vt -6.012011 8.166519
vt -9.620817 1.656132
vt -9.620817 8.166500
vt -13.229587 1.656117
vt -13.229585 8.166519
vt 4.602445 19.990425
vt -1.236124 19.242315
vt 1.423994 14.230909
vt -3.627294 14.387168
vt -0.909422 10.002639
vt 4.249017 10.040544
vt 7.082016 14.651861
vt 4.814341 1.656115
vt 8.423127 1.656116
vt 8.423127 8.166521
vt 4.814341 8.166520
vt 1.205547 1.656129
vt 1.205552 8.166502
vt -2.403250 1.656096
vt -2.403254 8.166539
vt -6.012018 1.656119
vt -6.012011 8.166519
vt -9.620817 1.656132
vt -9.620817 8.166500
vt -13.229587 1.656117
vt -13.229585 8.166519
vt 4.814341 1.656115
vt 8.423127 1.656116
vt 1.205547 1.656129
vt -2.403250 1.656096
vt -6.012018 1.656119
vt -9.620817 1.656132
vt -13.229587 1.656117
vt 0.375000 0.312500
vt 0.416667 0.312500
vt 0.416667 0.688440
vt 0.375000 0.688440
vt 0.458333 0.312500
vt 0.458333 0.688440
vt 0.500000 0.312500
vt 0.500000 0.688440
vt 0.541667 0.312500
vt 0.541667 0.688440
vt 0.583333 0.312500
vt 0.583333 0.688440
vt 0.625000 0.312500
vt 0.625000 0.688440
vt 0.421875 0.020934
vt 0.578125 0.020934
vt 0.500000 0.150000
vt 0.343750 0.156250
vt 0.421875 0.291566
vt 0.578125 0.291566
vt 0.656250 0.156250
vt 0.656250 0.843750
vt 0.578125 0.979066
vt 0.576978 0.976988
vt 0.653956 0.843658
vt 0.421875 0.979066
vt 0.423022 0.976988
vt 0.343750 0.843750
vt 0.346044 0.843658
vt 0.421875 0.708434
vt 0.423022 0.710329
vt 0.578125 0.708434
vt 0.576978 0.710329
vt 0.578125 0.840625
vt 0.539062 0.908283
vt 0.460938 0.908283
vt 0.421875 0.840625
vt 0.460938 0.772967
vt 0.539062 0.772967
vt 0.000000 0.000000
vt 1.000000 0.000000
vt 1.000000 1.000000
vt 0.000000 1.000000
vt 0.578125 0.840625
vt 0.539062 0.908283
vt 0.460938 0.908283
vt 0.421875 0.840625
vt 0.460938 0.772967
vt 0.539062 0.772967
vt 1.000000 0.000000
vt 1.000000 1.000000
vt 0.000000 1.000000
vt 0.000000 0.000000
vn 0.999984 0.000609 0.005641
vn 0.999984 0.000609 0.005641
vn 0.999984 0.000609 0.005641
vn 0.999984 0.000609 0.005641
vn 0.500000 0.001221 -0.866025
vn 0.500000 0.001221 -0.866025
vn 0.500000 0.001221 -0.866025
vn 0.500000 0.001221 -0.866025
vn -0.499999 0.001221 -0.866025
vn -0.500000 0.001221 -0.866025
vn -0.500000 0.001221 -0.866025
vn -0.500000 0.001221 -0.866025
vn -0.999999 0.001222 -0.000000
vn -0.999999 0.001222 -0.000000
vn -0.999999 0.001222 -0.000000
vn -0.999999 0.001222 -0.000000
vn -0.500000 0.001221 0.866025
vn -0.500000 0.001221 0.866025
vn -0.500000 0.001221 0.866025
vn -0.500000 0.001221 0.866025
vn 0.499999 0.001221 0.866025
vn 0.499999 0.001221 0.866025
vn 0.499999 0.001221 0.866025
vn 0.500000 0.001221 0.866025
vn 0.999984 0.000609 -0.005705
vn 0.999984 0.000609 -0.005705
vn 0.999984 0.000609 -0.005705
vn 0.999984 0.000609 -0.005705
vn 1.000000 -0.000000 0.000001
vn 1.000000 -0.000000 0.000001
vn 1.000000 -0.000000 0.000001
vn 1.000000 -0.000000 0.000001
vn 0.999984 -0.000593 0.005641
vn 0.999984 -0.000593 0.005641
vn 0.999984 -0.000593 0.005641
vn 0.999984 -0.000593 0.005641
vn 0.500000 -0.001190 -0.866025
vn 0.500000 -0.001190 -0.866025
vn 0.500000 -0.001190 -0.866025
vn 0.500000 -0.001190 -0.866025
vn -0.499999 -0.001190 -0.866025
vn -0.499999 -0.001190 -0.866025
vn -0.499999 -0.001190 -0.866025
vn -0.499999 -0.001190 -0.866025
vn -0.999999 -0.001190 -0.000000
vn -0.999999 -0.001190 -0.000000
vn -0.999999 -0.001190 -0.000000
vn -0.999999 -0.001190 -0.000000
vn -0.500000 -0.001190 0.866025
vn -0.500000 -0.001190 0.866025
vn -0.500000 -0.001190 0.866025
vn -0.500000 -0.001190 0.866025
vn 0.499999 -0.001190 0.866025
vn 0.499999 -0.001190 0.866025
vn 0.499999 -0.001190 0.866025
vn 0.499999 -0.001190 0.866025
vn 0.999984 -0.000593 -0.005705
vn 0.999984 -0.000593 -0.005705
vn 0.999984 -0.000593 -0.005705
vn 0.999984 -0.000593 -0.005705
vn -1.000000 -0.000000 -0.000000
vn -1.000000 -0.000000 -0.000000
vn -1.000000 -0.000000 -0.000000
vn -1.000000 -0.000000 -0.000000
vn -0.500000 0.000000 0.866025
vn -0.500000 0.000000 0.866025
vn -0.500000 0.000000 0.866025
vn -0.500000 0.000000 0.866025
vn 0.500000 0.000000 0.866026
vn 0.500000 0.000000 0.866026
vn 0.500000 0.000000 0.866026
vn 0.500000 0.000000 0.866026
vn 1.000000 0.000000 0.000000
vn 1.000000 0.000000 0.000000
vn 1.000000 0.000000 0.000000
vn 1.000000 0.000000 0.000000
vn 0.500000 0.000000 -0.866025
vn 0.500000 0.000000 -0.866025
vn 0.500000 0.000000 -0.866025
vn 0.500000 0.000000 -0.866025
vn -0.500000 0.000000 -0.866026
vn -0.500000 0.000000 -0.866026
vn -0.500000 0.000000 -0.866026
vn -0.500000 0.000000 -0.866026
vn -1.000000 0.000000 -0.000000
vn -1.000000 0.000000 -0.000000
vn -1.000000 0.000000 -0.000000
vn -1.000000 0.000000 -0.000000
vn -1.000000 0.000000 -0.000000
vn -1.000000 0.000000 -0.000000
vn -1.000000 0.000000 -0.000000
vn -1.000000 0.000000 -0.000000
vn -1.000000 0.000000 -0.000000
vn -1.000000 0.000000 -0.000000
vn -1.000000 0.000000 -0.000000
vn -1.000000 0.000000 -0.000000
vn -0.500000 0.000000 0.866025
vn -0.500000 0.000000 0.866025
vn -0.500000 0.000000 0.866025
vn -0.500000 0.000000 0.866025
vn 0.500000 0.000000 0.866026
vn 0.500000 0.000000 0.866026
vn 0.500000 0.000000 0.866026
vn 0.500000 0.000000 0.866026
vn 1.000000 0.000000 0.000000
vn 1.000000 0.000000 0.000000
vn 1.000000 0.000000 0.000000
vn 1.000000 0.000000 0.000000
vn 0.500000 0.000000 -0.866025
vn 0.500000 0.000000 -0.866025
vn 0.500000 0.000000 -0.866025
vn 0.500000 0.000000 -0.866025
vn -0.500000 0.000000 -0.866026
vn -0.500000 0.000000 -0.866026
vn -0.500000 0.000000 -0.866026
vn -0.500000 0.000000 -0.866026
vn -1.000000 0.000000 -0.000000
vn -1.000000 0.000000 -0.000000
vn -1.000000 0.000000 -0.000000
vn -1.000000 0.000000 -0.000000
vn 0.000000 1.000000 0.000000
vn 0.000000 1.000000 0.000000
vn 0.000000 1.000000 0.000000
vn 0.000000 1.000000 0.000000
vn 0.000000 -0.000000 -1.000000
vn 0.000000 -0.000000 -1.000000
vn 0.000000 -0.000000 -1.000000
vn 0.000000 -0.000000 -1.000000
vn 0.000021 1.000000 0.000000
vn 0.000021 1.000000 0.000000
vn 0.000021 1.000000 0.000000
vn 0.000021 1.000000 0.000000
vn -0.000021 1.000000 -0.000000
vn -0.000021 1.000000 -0.000000
vn -0.000021 1.000000 -0.000000
vn -0.000021 1.000000 -0.000000
vn -0.000042 1.000000 -0.000000
vn -0.000042 1.000000 -0.000000
vn -0.000042 1.000000 -0.000000
vn -0.000042 1.000000 -0.000000
vn -0.000021 1.000000 -0.000000
vn -0.000021 1.000000 -0.000000
vn -0.000021 1.000000 -0.000000
vn -0.000021 1.000000 -0.000000
vn 0.000000 1.000000 0.000000
vn 0.000000 1.000000 0.000000
vn 0.000000 1.000000 0.000000
vn 0.000000 1.000000 0.000000
vn -0.000000 0.000000 1.000000
vn -0.000000 0.000000 1.000000
vn -0.000000 0.000000 1.000000
vn -0.000000 0.000000 1.000000
vn 0.000000 1.000000 0.000000
vn 0.000000 1.000000 0.000000
vn 0.000000 1.000000 0.000000
vn 0.000000 1.000000 0.000000
vn 0.000000 -1.000000 0.000000
vn 0.000000 -1.000000 0.000000
vn 0.000000 -1.000000 0.000000
vn 0.000000 -1.000000 0.000000
vn 0.000000 1.000000 0.000000
vn 0.000000 1.000000 0.000000
vn 0.000000 1.000000 0.000000
vn 0.000000 1.000000 0.000000
vn -0.000010 -1.000000 -0.000000
vn -0.000010 -1.000000 -0.000000
vn -0.000010 -1.000000 -0.000000
vn -0.000010 -1.000000 -0.000000
vn 0.000000 -1.000000 0.000000
vn 0.000000 -1.000000 0.000000
vn 0.000000 -1.000000 0.000000
vn 0.000000 -1.000000 0.000000
vn -0.000005 -1.000000 -0.000000
vn -0.000005 -1.000000 -0.000000
vn -0.000005 -1.000000 -0.000000
vn -0.000005 -1.000000 -0.000000
vn 0.000010 -1.000000 0.000000
vn 0.000010 -1.000000 0.000000
vn 0.000010 -1.000000 0.000000
vn 0.000010 -1.000000 0.000000
vn 0.000000 -1.000000 0.000000
vn 0.000000 -1.000000 0.000000
vn 0.000000 -1.000000 0.000000
vn 0.000000 -1.000000 0.000000
vn 0.000005 -1.000000 0.000000
vn 0.000005 -1.000000 0.000000
vn 0.000005 -1.000000 0.000000
vn 0.000005 -1.000000 0.000000
vn 0.000000 -1.000000 0.000000
vn 0.000000 -1.000000 0.000000
vn 0.000000 -1.000000 0.000000
vn 0.000000 -1.000000 0.000000
vn -0.856354 -0.149030 0.494416
vn -0.856354 -0.149030 -0.494417
vn -0.000000 -1.000000 -0.000000
vn -0.000000 -0.149030 0.988833
vn 0.856354 -0.149030 0.494416
vn 0.856354 -0.149030 -0.494416
vn 0.000000 -0.149030 -0.988833
vn 0.602214 -0.720693 0.343424
vn -0.000000 -0.999988 0.004964
vn 0.592612 -0.727226 -0.346343
vn 0.000000 -0.730395 -0.683025
vn -0.592612 -0.727225 -0.346343
vn -0.602214 -0.720693 0.343424
vn -0.000000 -0.717326 0.696737
vn 0.500000 -0.000710 0.866025
vn 0.500000 -0.000710 0.866025
vn 0.500000 -0.000710 0.866025
vn 0.500000 -0.000710 0.866025
vn -0.500000 -0.000710 0.866025
vn -0.500000 -0.000710 0.866025
vn -0.500000 -0.000710 0.866025
vn -0.500000 -0.000710 0.866025
vn -1.000000 -0.000710 -0.000000
vn -1.000000 -0.000710 -0.000000
vn -1.000000 -0.000710 -0.000000
vn -1.000000 -0.000710 -0.000000
vn -0.500000 -0.000710 -0.866025
vn -0.500000 -0.000710 -0.866025
vn -0.500000 -0.000710 -0.866025
vn -0.500000 -0.000710 -0.866025
vn 0.500000 -0.000710 -0.866025
vn 0.500000 -0.000710 -0.866025
vn 0.500000 -0.000710 -0.866025
vn 0.500000 -0.000710 -0.866025
vn 1.000000 -0.000710 0.000000
vn 1.000000 -0.000710 0.000000
vn 1.000000 -0.000710 0.000000
vn 1.000000 -0.000710 0.000000
vn -0.599856 0.723256 -0.342160
vn -0.590461 0.729607 0.345007
vn -0.000000 0.999988 -0.004846
vn -0.000000 0.732690 0.680563
vn 0.590461 0.729607 0.345007
vn 0.599856 0.723256 -0.342160
vn -0.000000 0.719985 -0.693989
vn -0.500000 0.000000 -0.866026
vn -0.500000 0.000000 -0.866026
vn -0.500000 0.000000 -0.866026
vn -0.500000 0.000000 -0.866026
vn 0.500000 0.000000 -0.866025
vn 0.500000 0.000000 -0.866025
vn 0.500000 0.000000 -0.866025
vn 0.500000 0.000000 -0.866025
vn 1.000000 0.000000 0.000000
vn 1.000000 0.000000 0.000000
vn 1.000000 0.000000 0.000000
vn 1.000000 0.000000 0.000000
vn 0.500000 0.000000 0.866026
vn 0.500000 0.000000 0.866026
vn 0.500000 0.000000 0.866026
vn 0.500000 0.000000 0.866026
vn -0.500000 0.000000 0.866025
vn -0.500000 0.000000 0.866025
vn -0.500000 0.000000 0.866025
vn -0.500000 0.000000 0.866025
vn -1.000000 0.000000 -0.000000
vn -1.000000 0.000000 -0.000000
vn -1.000000 0.000000 -0.000000
vn -1.000000 0.000000 -0.000000
vn 0.000005 -1.000000 0.000000
vn 0.000005 -1.000000 0.000000
vn 0.000000 -1.000000 0.000000
vn 0.000000 -1.000000 0.000000
vn 0.000005 -1.000000 0.000000
vn 0.000005 -1.000000 0.000000
vn 0.000000 -1.000000 0.000000
vn 0.000000 -1.000000 0.000000
vn -0.000005 -1.000000 -0.000000
vn -0.000005 -1.000000 -0.000000
vn -0.000005 -1.000000 -0.000000
vn -0.000005 -1.000000 -0.000000
vn -1.000000 0.000000 -0.000000
vn -1.000000 0.000000 -0.000000
vn -1.000000 0.000000 -0.000000
vn -1.000000 0.000000 -0.000000
vn -0.499999 0.000000 0.866026
vn -0.499999 0.000000 0.866026
vn -0.499999 0.000000 0.866026
vn -0.499999 0.000000 0.866026
vn 0.500000 0.000000 0.866025
vn 0.500000 0.000000 0.866025
vn 0.500000 0.000000 0.866025
vn 0.500000 0.000000 0.866025
vn 1.000000 0.000000 0.000000
vn 1.000000 0.000000 0.000000
vn 1.000000 0.000000 0.000000
vn 1.000000 0.000000 0.000000
vn 0.499999 0.000000 -0.866026
vn 0.499999 0.000000 -0.866026
vn 0.499999 0.000000 -0.866026
vn 0.499999 0.000000 -0.866026
vn -0.500000 0.000000 -0.866025
vn -0.500000 0.000000 -0.866025
vn -0.500000 0.000000 -0.866025
vn -0.500000 0.000000 -0.866025
vn -0.362853 -0.907993 0.209493
vn -0.362853 -0.907993 -0.209493
vn -0.000000 -1.000000 0.000000
vn -0.000000 -0.907993 0.418986
vn 0.362853 -0.907993 0.209493
vn 0.362853 -0.907993 -0.209493
vn 0.000000 -0.907993 -0.418986
vn 0.000005 0.999996 -0.002989
vn -0.002594 0.999996 -0.001498
vn -0.002595 0.999996 -0.001496
vn 0.000001 0.999996 -0.002989
vn -0.002594 0.999996 0.001498
vn -0.002595 0.999996 0.001496
vn 0.000002 0.999996 0.002990
vn -0.000001 0.999996 0.002990
vn 0.002586 0.999996 0.001492
vn 0.002585 0.999996 0.001494
vn 0.002588 0.999996 -0.001492
vn 0.002588 0.999996 -0.001493
vn 0.000001 1.000000 0.000000
vn -0.000000 1.000000 -0.000000
vn -0.000000 1.000000 -0.000000
vn 0.000001 1.000000 0.000000
vn 0.000001 1.000000 0.000000
vn 0.000001 1.000000 0.000000
vn -0.000001 1.000000 -0.000000
vn -0.000001 1.000000 -0.000000
vn -0.499991 0.000000 -0.866031
vn -0.499991 0.000000 -0.866031
vn -0.499991 0.000000 -0.866031
vn -0.499991 0.000000 -0.866031
vn -0.499991 0.000000 0.866031
vn -0.499991 0.000000 0.866031
vn -0.499991 0.000000 0.866031
vn -0.499991 0.000000 0.866031
vn 0.499991 0.000000 0.866030
vn 0.499991 0.000000 0.866030
vn 0.499991 0.000000 0.866030
vn 0.499991 0.000000 0.866030
vn 1.000000 0.000000 0.000001
vn 1.000000 0.000000 0.000001
vn 1.000000 0.000000 0.000001
vn 1.000000 0.000000 0.000001
vn 0.499991 0.000000 -0.866031
vn 0.499991 0.000000 -0.866031
vn 0.499991 0.000000 -0.866031
vn 0.499991 0.000000 -0.866031
vn 0.000000 0.000000 -1.000000
vn 0.000000 0.000000 -1.000000
vn 0.000000 0.000000 -1.000000
vn 0.000000 0.000000 -1.000000
vn -1.000000 0.000000 -0.000002
vn -1.000000 0.000000 -0.000002
vn -1.000000 0.000000 -0.000002
vn -1.000000 0.000000 -0.000002
vn -0.000000 0.000000 1.000000
vn -0.000000 0.000000 1.000000
vn -0.000000 0.000000 1.000000
vn -0.000000 0.000000 1.000000
s off
g pCylinder3 group3
usemtl lambert3SG
f 25/81/1 28/84/2 27/83/3 26/82/4
f 26/1/5 27/4/6 30/3/7 29/2/8
f 29/2/9 30/3/10 32/8/11 31/7/12
f 31/93/13 32/96/14 34/95/15 33/94/16
f 33/10/17 34/13/18 36/12/19 35/11/20
f 35/11/21 36/12/22 38/17/23 37/16/24
f 37/90/25 38/92/26 40/91/27 39/88/28
f 41/87/29 39/88/30 25/81/31 42/85/32
f 42/85/33 25/81/34 26/82/35 43/86/36
f 43/5/37 26/1/38 29/2/39 44/6/40
f 44/6/41 29/2/42 31/7/43 45/9/44
f 45/97/45 31/93/46 33/94/47 46/98/48
f 46/14/49 33/10/50 35/11/51 47/15/52
f 47/15/53 35/11/54 37/16/55 48/18/56
f 48/89/57 37/90/58 39/88/59 41/87/60
f 18/99/61 19/102/62 1/101/63 15/100/64
f 19/19/65 20/22/66 3/21/67 1/20/68
f 20/22/69 21/24/70 4/23/71 3/21/72
f 21/111/73 22/114/74 5/113/75 4/112/76
f 22/28/77 23/31/78 6/30/79 5/29/80
f 23/31/81 24/33/82 2/32/83 6/30/84
f 24/108/85 17/106/86 13/110/87 2/109/88
f 14/105/89 16/103/90 18/99/91 17/106/92
f 16/103/93 8/104/94 19/102/95 18/99/96
f 8/25/97 9/26/98 20/22/99 19/19/100
f 9/26/101 10/27/102 21/24/103 20/22/104
f 10/115/105 11/116/106 22/114/107 21/111/108
f 11/34/109 12/35/110 23/31/111 22/28/112
f 12/35/113 7/36/114 24/33/115 23/31/116
f 7/107/117 14/105/118 17/106/119 24/108/120
f 1/45/121 27/48/122 28/47/123 15/46/124
f 15/37/125 28/40/126 25/39/127 18/38/128
f 3/49/129 30/50/130 27/48/131 1/45/132
f 4/51/133 32/52/134 30/50/135 3/49/136
f 5/53/137 34/54/138 32/52/139 4/51/140
f 6/55/141 36/56/142 34/54/143 5/53/144
f 2/57/145 38/58/146 36/56/147 6/55/148
f 17/41/149 39/44/150 40/43/151 13/42/152
f 13/59/153 40/60/154 38/58/155 2/57/156
f 14/61/157 41/64/158 42/63/159 16/62/160
f 18/77/161 25/80/162 39/79/163 17/78/164
f 16/62/165 42/63/166 43/66/167 8/65/168
f 8/65/169 43/66/170 44/70/171 9/69/172
f 9/69/173 44/70/174 45/74/175 10/73/176
f 10/73/177 45/74/178 46/76/179 11/75/180
f 11/75/181 46/76/182 47/72/183 12/71/184
f 12/71/185 47/72/186 48/68/187 7/67/188
f 7/67/189 48/68/190 41/64/191 14/61/192
s 1
f 50/117/193 49/118/194 55/119/195
f 51/120/196 50/117/193 55/119/195
f 52/121/197 51/120/196 55/119/195
f 53/122/198 52/121/197 55/119/195
f 54/123/199 53/122/198 55/119/195
f 49/118/194 54/123/199 55/119/195
s 2
f 69/124/200 71/125/201 70/126/202
f 70/126/202 71/125/201 72/127/203
f 72/127/203 71/125/201 73/128/204
f 73/128/204 71/125/201 74/129/205
f 74/129/205 71/125/201 75/130/206
f 75/130/206 71/125/201 69/124/200
s off
f 77/131/207 75/132/208 69/133/209 76/134/210
f 78/135/211 74/136/212 75/132/213 77/131/214
f 79/137/215 73/138/216 74/136/217 78/135/218
f 80/139/219 72/140/220 73/138/221 79/137/222
f 81/141/223 70/142/224 72/140/225 80/139/226
f 76/143/227 69/144/228 70/142/229 81/141/230
s 3
f 56/145/231 57/146/232 62/147/233
f 57/146/232 58/148/234 62/147/233
f 58/148/234 59/149/235 62/147/233
f 59/149/235 60/150/236 62/147/233
f 60/150/236 61/151/237 62/147/233
f 61/151/237 56/145/231 62/147/233
s off
f 64/152/238 63/153/239 56/154/240 61/155/241
f 65/156/242 64/152/243 61/155/244 60/157/245
f 66/158/246 65/156/247 60/157/248 59/159/249
f 67/160/250 66/158/251 59/159/252 58/161/253
f 68/162/254 67/160/255 58/161/256 57/163/257
f 63/164/258 68/162/259 57/163/260 56/165/261
s 4
f 64/166/262 77/131/263 76/134/264 63/167/265
f 65/168/266 78/135/267 77/131/263 64/166/262
f 66/169/268 79/137/269 78/135/267 65/168/266
f 67/170/270 80/139/271 79/137/269 66/169/268
f 68/171/272 81/141/273 80/139/271 67/170/270
f 63/172/265 76/143/264 81/141/273 68/171/272
s off
usemtl initialShadingGroup
f 82/173/274 83/174/275 89/175/276 88/176/277
f 83/174/278 84/177/279 90/178/280 89/175/281
f 84/177/282 85/179/283 91/180/284 90/178/285
f 85/179/286 86/181/287 92/182/288 91/180/289
f 86/181/290 87/183/291 93/184/292 92/182/293
f 87/183/294 82/185/295 88/186/296 93/184/297
s 5
f 83/187/298 82/188/299 94/189/300
f 84/190/301 83/187/298 94/189/300
f 85/191/302 84/190/301 94/189/300
f 86/192/303 85/191/302 94/189/300
f 87/193/304 86/192/303 94/189/300
f 82/188/299 87/193/304 94/189/300
s 6
f 93/194/305 88/195/306 97/196/307 98/197/308
f 88/195/306 89/198/309 96/199/310 97/196/307
f 89/198/309 90/200/311 95/201/312 96/199/310
f 90/200/311 91/202/313 100/203/314 95/201/312
f 91/202/313 92/204/315 99/205/316 100/203/314
f 92/204/315 93/194/305 98/197/308 99/205/316
s 7
usemtl lambert3SG
f 109/206/317 110/207/318 111/208/319 112/209/320 113/210/321 114/211/322
f 111/212/319 110/213/318 115/214/323 116/215/324
s off
f 106/216/325 101/217/326 110/207/327 109/206/328
f 102/218/329 103/219/330 112/209/331 111/208/332
f 103/219/333 104/220/334 113/210/335 112/209/336
f 104/220/337 105/221/338 114/211/339 113/210/340
f 105/221/341 106/216/342 109/206/343 114/211/344
f 101/222/345 107/223/346 115/214/347 110/213/348
f 107/223/349 108/224/350 116/215/351 115/214/352
f 108/224/353 102/225/354 111/212/355 116/215/356
