# This file uses meters as units for non-parametric coordinates.

mtllib pedestal.mtl
g default
v 0.603690 0.108776 -0.336677
v -0.030478 0.108776 -0.702814
v -0.664647 0.108776 -0.336677
v -0.664647 0.108776 0.395598
v -0.030479 0.108776 0.761735
v 0.603690 0.108776 0.395598
v 0.603690 2.249967 -0.336677
v -0.030478 2.249967 -0.702814
v -0.664647 2.249967 -0.336677
v -0.664647 2.249967 0.395598
v -0.030479 2.249967 0.761735
v 0.603690 2.249967 0.395598
v -0.030479 0.108776 0.029461
v 0.520943 2.249967 0.347824
v 0.520943 2.249967 -0.288903
v -0.030479 2.249967 -0.607267
v -0.581901 2.249967 -0.288903
v -0.581901 2.249967 0.347824
v -0.030479 2.249967 0.666188
v -0.664647 2.002217 0.395598
v -0.664647 2.002217 -0.336677
v -0.030478 2.002217 -0.702814
v 0.603690 2.002217 -0.336677
v 0.603690 2.002217 0.395598
v -0.030479 2.002217 0.761735
v -0.030479 2.249967 0.029461
vt 0.578125 0.020934
vt 0.421875 0.020934
vt 0.343750 0.156250
vt 0.421875 0.291566
vt 0.578125 0.291566
vt 0.656250 0.156250
vt 0.015250 0.011661
vt 0.118985 0.875309
vt 0.879650 0.878965
vt 0.340810 0.011661
vt 0.879114 0.878965
vt 0.666369 0.011661
vt 0.879236 0.878965
vt 0.991928 0.011661
vt 0.118904 0.875309
vt 0.347065 0.011661
vt 0.879528 0.878965
vt 0.028833 0.023934
vt 0.045791 0.081597
vt 0.500000 0.150000
vt 0.505916 0.207722
vt 0.759036 0.353861
vt 0.759036 0.646139
vt 0.505916 0.792278
vt 0.252796 0.646139
vt 0.252796 0.353861
vt 0.039592 0.911364
vt 0.039179 0.962464
vt 0.132945 0.908329
vt 0.133760 0.857930
vt 0.097860 0.900019
vt 0.191850 0.846272
vt 0.025389 0.853717
vt 0.119379 0.799971
vt 0.116057 0.872007
vt 0.210225 0.818573
vt 0.042685 0.876536
vt 0.136451 0.822401
vt 0.136451 0.100881
vt 0.122374 0.078458
vt 0.215614 0.097074
vt 0.042685 0.046746
vt 0.194844 0.124759
vt 0.122256 0.042239
vt 0.132945 0.186809
vt 0.101304 0.070235
vt 0.139150 0.136431
vt 0.039179 0.132674
vt 0.672624 0.011661
vt 0.998183 0.011661
vt 0.879363 0.878965
vt 0.021505 0.011661
vt 0.878949 0.878965
vt 0.666369 0.875331
vt 0.879114 0.635277
vt 0.879363 0.635277
vt 0.118985 0.631621
vt 0.879650 0.635277
vt 0.879528 0.635277
vt 0.878949 0.635277
vt 0.118904 0.631621
vt 0.021505 0.875331
vt 0.991928 0.875331
vt 0.879236 0.635277
vt 0.347065 0.875331
vt 0.672624 0.875331
vt 0.015250 0.875331
vt 0.998183 0.875331
vt 0.340810 0.875331
vt 0.118881 0.631621
vt 0.118881 0.875309
vt 0.118936 0.631621
vt 0.118936 0.875309
vt 0.118961 0.631621
vt 0.118961 0.875309
vt 0.119017 0.631621
vt 0.119017 0.875309
vt 0.505916 0.500000
vn 0.500000 0.000000 -0.866025
vn 0.500000 0.000000 -0.866025
vn 0.500000 0.000000 -0.866025
vn 0.500000 0.000000 -0.866025
vn -0.500000 0.000000 -0.866026
vn -0.500000 0.000000 -0.866026
vn -0.500000 0.000000 -0.866025
vn -0.500000 0.000000 -0.866025
vn -1.000000 0.000000 -0.000000
vn -1.000000 0.000000 -0.000000
vn -1.000000 0.000000 -0.000000
vn -1.000000 0.000000 -0.000000
vn -0.500000 0.000000 0.866025
vn -0.500000 0.000000 0.866025
vn -0.500000 0.000000 0.866025
vn -0.500000 0.000000 0.866025
vn 0.500000 0.000000 0.866025
vn 0.500000 0.000000 0.866025
vn 0.500000 0.000000 0.866025
vn 0.500000 -0.000000 0.866025
vn 1.000000 -0.000000 0.000000
vn 1.000000 -0.000000 0.000000
vn 1.000000 0.000000 0.000000
vn 1.000000 0.000000 0.000000
vn 0.000000 -1.000000 -0.000000
vn 0.000000 -1.000000 0.000000
vn 0.000000 -1.000000 -0.000000
vn 0.000000 -1.000000 -0.000000
vn 0.000000 -1.000000 -0.000000
vn 0.000000 -1.000000 -0.000000
vn 0.000000 -1.000000 0.000000
vn 0.000000 1.000000 -0.000000
vn 0.000000 1.000000 -0.000000
vn 0.000000 1.000000 -0.000000
vn 0.000000 1.000000 0.000000
vn 0.000000 1.000000 0.000000
vn 0.000000 1.000000 0.000000
vn 0.000000 1.000000 0.000000
vn 0.000000 1.000000 0.000001
vn 0.000000 1.000000 0.000001
vn 0.000000 1.000000 0.000001
vn 0.000000 1.000000 0.000001
vn 0.000000 1.000000 -0.000000
vn 0.000000 1.000000 -0.000000
vn 0.000000 1.000000 -0.000000
vn 0.000000 1.000000 -0.000000
vn 0.000000 1.000000 0.000000
vn 0.000000 1.000000 0.000000
vn 0.000000 1.000000 0.000000
vn 0.000000 1.000000 0.000000
vn 0.000000 1.000000 0.000001
vn 0.000000 1.000000 0.000001
vn 0.000000 1.000000 0.000001
vn 0.000000 1.000000 0.000001
vn 0.000000 1.000000 -0.000001
vn 0.000000 1.000000 -0.000001
vn 0.000000 1.000000 -0.000001
vn 0.000000 1.000000 -0.000001
vn -1.000000 0.000000 -0.000000
vn -1.000000 0.000000 -0.000000
vn -0.500000 0.000000 -0.866025
vn -0.500000 0.000000 -0.866025
vn 0.500000 0.000000 -0.866025
vn 0.500000 0.000000 -0.866025
vn 1.000000 0.000000 0.000000
vn 1.000000 0.000000 0.000000
vn 0.500000 -0.000000 0.866025
vn 0.500000 -0.000000 0.866025
vn -0.500000 0.000000 0.866025
vn -0.500000 0.000000 0.866025
vn 0.000000 1.000000 0.000000
vn 0.000000 1.000000 0.000000
vn 0.000000 1.000000 -0.000000
vn 0.000000 1.000000 0.000000
s 1
g pCylinder26
usemtl lambert3SG
f 1/49/1 2/50/2 22/68/3 23/66/4
s 2
f 2/7/5 3/10/6 21/69/7 22/67/8
s 3
f 3/10/9 4/12/10 20/54/11 21/69/12
s 4
f 4/12/13 5/14/14 25/63/15 20/54/16
s 5
f 5/52/17 6/16/18 24/65/19 25/62/20
s 6
f 6/16/21 1/49/22 23/66/23 24/65/24
s 7
f 2/2/25 1/1/26 13/20/27
f 3/3/28 2/2/25 13/20/27
f 4/4/29 3/3/28 13/20/27
f 5/5/30 4/4/29 13/20/27
f 6/6/31 5/5/30 13/20/27
f 1/1/26 6/6/31 13/20/27
s 8
f 18/25/32 26/78/33 17/24/34
s off
f 12/27/35 7/19/36 15/47/37 14/30/38
f 7/28/39 8/48/40 16/45/41 15/29/42
f 8/31/43 9/46/44 17/43/45 16/32/46
f 9/35/47 10/44/48 18/41/49 17/36/50
f 10/37/51 11/42/52 19/39/53 18/38/54
f 11/33/55 12/18/56 14/40/57 19/34/58
s 3
f 21/74/12 20/64/11 10/13/59 9/75/60
s 2
f 22/57/8 21/55/7 9/11/61 8/8/62
s 1
f 23/72/4 22/56/3 8/51/63 7/73/64
s 6
f 24/70/24 23/58/23 7/9/65 12/71/66
s 5
f 25/61/20 24/59/19 12/17/67 11/15/68
s 4
f 20/76/16 25/60/15 11/53/69 10/77/70
s 8
f 14/21/71 15/22/72 26/78/33
f 26/78/33 15/22/72 16/23/73
f 26/78/33 16/23/73 17/24/34
f 19/26/74 26/78/33 18/25/32
f 14/21/71 26/78/33 19/26/74
