# This file uses meters as units for non-parametric coordinates.

mtllib walkway.mtl
g default
v -1.913872 -0.070122 -1.061226
v -1.913872 -0.070122 1.130493
v -0.015783 -0.164256 6.443818
v 5.534725 -0.164256 3.239221
v 5.534730 -0.164256 -3.169947
v -0.015783 -0.164256 -6.374553
v -47.204281 -0.070129 -1.061233
v -47.204285 -0.070129 1.130490
v -0.015783 0.121852 -6.374553
v -1.913872 0.027718 -1.061226
v -1.913872 0.027718 1.130493
v -0.015783 0.121852 6.443818
v 5.534725 0.121852 3.239221
v 5.534730 0.121852 -3.169947
v -47.204281 0.027710 -1.061233
v -47.204285 0.027710 1.130490
v -5.566297 0.121852 -3.169947
v -5.566298 0.121852 3.239221
v -5.566297 -0.164256 -3.169947
v -5.566298 -0.164256 3.239221
v -0.015783 0.121852 -3.494499
v -3.072097 0.121852 -1.729926
v -3.072098 0.121852 1.799195
v -0.015783 0.121852 3.563763
v 3.040528 0.121852 1.799195
v 3.040530 0.121852 -1.729926
v -0.015784 0.121852 -0.897522
v -0.823052 0.121852 -0.431443
v -0.823052 0.121852 0.500708
v -0.015784 0.121852 0.966786
v 0.791483 0.121852 0.500708
v 0.791484 0.121852 -0.431443
vt 0.194602 3.016908
vt 0.206471 3.016908
vt 0.194601 -2.477437
vt 0.206470 -2.477437
vt 0.248756 -2.016908
vt 0.260625 -2.016908
vt 0.248755 3.477437
vt 0.260624 3.477437
vt 0.018314 -2.016908
vt -0.247571 -2.016908
vt 0.018315 3.477437
vt -0.247571 3.477437
vt 0.314778 -2.477437
vt 0.314778 -2.211550
vt 0.302909 -2.211550
vt 0.302909 -2.477437
vt 0.871069 0.749004
vt 0.871069 0.250997
vt 0.893300 0.250997
vt 0.893300 0.749004
vt 0.871069 0.001992
vt 0.893300 0.001992
vt 0.871069 0.998008
vt 0.893300 0.998008
vt 0.433173 0.998008
vt 0.001886 0.749003
vt 0.001886 0.250996
vt 0.433173 0.001992
vt 0.864460 0.250996
vt 0.864460 0.749003
vt 0.900589 0.250997
vt 0.900589 0.001992
vt 0.922820 0.001992
vt 0.922820 0.250997
vt 0.922549 0.503780
vt 0.922549 0.254776
vt 0.944781 0.254776
vt 0.944781 0.503780
vt 0.433173 1.299831
vt -0.259500 0.899914
vt -0.259500 0.100085
vt 0.433173 -0.299831
vt 1.125846 0.100085
vt 1.125847 0.899914
vt 0.389584 0.077353
vt 0.755613 0.288677
vt 0.755612 0.711326
vt 0.389588 0.922650
vt 0.023559 0.711326
vt 0.023562 0.288675
vn 0.000000 1.000000 0.000000
vn 0.000000 1.000000 0.000000
vn 0.000000 1.000000 0.000000
vn 0.000000 1.000000 0.000000
vn -0.000000 1.000000 0.000000
vn -0.000000 1.000000 0.000000
vn -0.000000 1.000000 0.000000
vn -0.000000 1.000000 0.000000
vn -0.500002 0.000000 -0.866024
vn -0.500002 0.000000 -0.866024
vn -0.500002 0.000000 -0.866024
vn -0.500002 0.000000 -0.866024
vn -0.500001 0.000000 0.866025
vn -0.500001 0.000000 0.866025
vn -0.500001 0.000000 0.866025
vn -0.500001 0.000000 0.866025
vn 0.500001 0.000000 0.866025
vn 0.500001 0.000000 0.866025
vn 0.500001 0.000000 0.866025
vn 0.500001 0.000000 0.866025
vn 1.000000 0.000000 0.000001
vn 1.000000 0.000000 0.000001
vn 1.000000 0.000000 0.000001
vn 1.000000 0.000000 0.000001
vn 0.500002 0.000000 -0.866024
vn 0.500002 0.000000 -0.866024
vn 0.500002 0.000000 -0.866024
vn 0.500002 0.000000 -0.866024
vn 0.000000 0.000000 -1.000000
vn 0.000000 0.000000 -1.000000
vn 0.000000 0.000000 -1.000000
vn 0.000000 0.000000 -1.000000
vn -1.000000 0.000000 -0.000002
vn -1.000000 0.000000 -0.000002
vn -1.000000 0.000000 -0.000002
vn -1.000000 0.000000 -0.000002
vn -0.000000 0.000000 1.000000
vn -0.000000 0.000000 1.000000
vn -0.000000 0.000000 1.000000
vn -0.000000 0.000000 1.000000
vn 0.000000 1.000000 0.000000
vn 0.000000 1.000000 0.000000
vn 0.000000 1.000000 0.000000
vn 0.000000 1.000000 0.000000
vn 0.000000 1.000000 0.000000
vn 0.000000 1.000000 0.000000
vn 0.000000 1.000000 0.000000
vn 0.000000 1.000000 0.000000
vn 0.000000 1.000000 -0.000000
vn 0.000000 1.000000 -0.000000
vn 0.000000 1.000000 -0.000000
vn 0.000000 1.000000 -0.000000
vn 0.000000 1.000000 0.000000
vn 0.000000 1.000000 0.000000
vn 0.000000 1.000000 0.000000
vn 0.000000 1.000000 0.000000
vn 0.000000 1.000000 0.000000
vn 0.000000 1.000000 0.000000
vn 0.000000 1.000000 0.000000
vn 0.000000 1.000000 0.000000
vn 0.000000 1.000000 0.000000
vn 0.000000 1.000000 0.000000
vn 0.000000 1.000000 0.000000
vn 0.000000 1.000000 0.000000
vn 0.000000 1.000000 -0.000000
vn 0.000000 1.000000 -0.000000
vn 0.000000 1.000000 -0.000000
vn 0.000000 1.000000 -0.000000
vn 0.000000 1.000000 0.000000
vn 0.000000 1.000000 0.000000
vn 0.000000 1.000000 0.000000
vn 0.000000 1.000000 0.000000
vn 0.000000 1.000000 0.000000
vn 0.000000 1.000000 0.000000
vn 0.000000 1.000000 0.000000
vn 0.000000 1.000000 0.000000
vn 0.000000 1.000000 -0.000000
vn 0.000000 1.000000 -0.000000
vn 0.000000 1.000000 -0.000000
vn 0.000000 1.000000 -0.000000
vn 0.000000 1.000000 0.000000
vn 0.000000 1.000000 0.000000
vn 0.000000 1.000000 0.000000
vn 0.000000 1.000000 0.000000
vn 0.000000 1.000000 -0.000000
vn 0.000000 1.000000 -0.000000
vn 0.000000 1.000000 -0.000000
vn 0.000000 1.000000 -0.000000
vn 0.000000 1.000000 0.000000
vn 0.000000 1.000000 0.000000
s 1
g walkway
usemtl lambert3SG
f 27/45/1 30/48/2 31/49/3 32/50/4
s off
f 11/10/5 10/9/6 15/11/7 16/12/8
f 6/31/9 19/32/10 17/33/11 9/34/12
f 20/35/13 3/36/14 12/37/15 18/38/16
f 3/23/17 4/17/18 13/20/19 12/24/20
f 4/17/21 5/18/22 14/19/23 13/20/24
f 5/18/25 6/21/26 9/22/27 14/19/28
f 1/1/29 7/3/30 15/4/31 10/2/32
f 7/13/33 8/14/34 16/15/35 15/16/36
f 8/7/37 2/5/38 11/6/39 16/8/40
f 9/25/41 17/26/42 22/40/43 21/39/44
f 17/26/45 18/27/46 23/41/47 22/40/48
f 18/27/49 12/28/50 24/42/51 23/41/52
f 12/28/53 13/29/54 25/43/55 24/42/56
f 13/29/57 14/30/58 26/44/59 25/43/60
f 14/30/61 9/25/62 21/39/63 26/44/64
f 21/39/65 22/40/66 28/46/67 27/45/68
f 22/40/69 23/41/70 29/47/71 28/46/72
f 23/41/73 24/42/74 30/48/75 29/47/76
f 24/42/77 25/43/78 31/49/79 30/48/80
f 25/43/81 26/44/82 32/50/83 31/49/84
f 26/44/85 21/39/86 27/45/87 32/50/88
s 1
f 27/45/1 28/46/89 29/47/90 30/48/2
